#!OML:ASF I:\golf\golf\golf 2\Subject 1\2002-09-07\Subject1.ASF
:FULLY-SPECIFIED
:DEGREES
279
root -5.77433 18.0839 -2.71818 -175.049 21.6913 -179.208
lowerback -5.45828 9.38658 12.8607
upperback -5.01638 14.6726 10.4888
thorax -2.33415 8.05683 4.63144
lowerneck -2.96318 -19.4734 -1.69418
upperneck 19.7609 -31.7025 1.7248
head 7.21542 -16.1959 -1.65137
rclavicle 1.11319e-014 1.01778e-013
rhumerus 64.6503 47.5503 -67.5715
rradius 48.6206
rwrist 3.11711
rhand -10.9805 10.815
rfingers 7.12502
rthumb 15.0393 -18.6188
lclavicle 1.11319e-014 1.01778e-013
lhumerus 21.6058 -5.24391 81.3893
lradius 66.6997
lwrist 47.1263
lhand -25.0327 22.5057
lfingers 7.12502
lthumb -178.52 -127.52
rfemur 6.41432 -7.50399 9.98752
rtibia 32.5688
rfoot 4.51603 -29.0855
rtoes 13.7466
lfemur -15.9311 -11.9706 -19.4867
ltibia 17.0916
lfoot 12.8153 -40.2739
ltoes 29.9579
280
root -5.7594 18.0937 -2.77181 -174.651 20.5613 -178.996
lowerback -5.43484 9.63511 13.2319
upperback -5.46197 15.0865 10.058
thorax -2.63505 8.22639 3.98173
lowerneck -3.24352 -19.696 -1.43428
upperneck 19.1289 -31.5944 1.76172
head 7.01236 -16.083 -1.62562
rclavicle -8.5875e-014 4.13472e-014
rhumerus 66.9026 46.9135 -67.0051
rradius 49.6364
rwrist 3.64229
rhand -11.6107 12.5159
rfingers 7.12502
rthumb 14.4321 -16.9623
lclavicle -8.5875e-014 4.13472e-014
lhumerus 23.5483 -3.82395 80.9273
lradius 68.335
lwrist 45.3872
lhand -24.9138 22.0709
lfingers 7.12502
lthumb -178.405 -127.955
rfemur 6.65172 -7.53065 10.5922
rtibia 32.1331
rfoot 5.15949 -29.6257
rtoes 13.5675
lfemur -16.3112 -12.2504 -19.2538
ltibia 17.2238
lfoot 14.1126 -40.6668
ltoes 31.0908
281
root -5.74167 18.1024 -2.82363 -174.283 19.452 -178.979
lowerback -5.56914 9.86224 13.3219
upperback -5.82752 15.4195 9.63646
thorax -2.81608 8.36674 3.51836
lowerneck -3.53161 -19.8599 -1.29511
upperneck 18.4297 -31.3981 1.86884
head 6.81673 -15.9269 -1.56403
rclavicle 2.38542e-014 2.29e-013
rhumerus 69.0849 46.3597 -66.6242
rradius 50.5663
rwrist 4.12246
rhand -12.0127 14.4526
rfingers 7.12502
rthumb 14.0448 -15.0529
lclavicle 2.38542e-014 2.29e-013
lhumerus 25.6564 -2.39522 80.5865
lradius 69.9733
lwrist 43.9296
lhand -24.9549 22.0445
lfingers 7.12502
lthumb -178.445 -127.981
rfemur 6.85346 -7.5392 11.0276
rtibia 31.663
rfoot 4.9741 -30.3437
rtoes 14.7554
lfemur -16.744 -12.3731 -19.2171
ltibia 17.3561
lfoot 15.6334 -41.1417
ltoes 32.5297
282
root -5.72291 18.1047 -2.88326 -173.949 18.3618 -179.087
lowerback -5.42754 10.0918 13.2989
upperback -6.48115 15.8904 9.10508
thorax -3.45184 8.55799 2.90235
lowerneck -3.51899 -19.9612 -1.35633
upperneck 17.9392 -31.2694 2.05465
head 6.68883 -15.8364 -1.45963
rclavicle -3.81667e-014 6.36111e-014
rhumerus 70.7568 45.8268 -66.3297
rradius 51.824
rwrist 4.23667
rhand -12.4203 15.4989
rfingers 7.12502
rthumb 13.6519 -14.0333
lclavicle -3.81667e-014 6.36111e-014
lhumerus 27.4443 -1.55544 80.1187
lradius 71.3956
lwrist 42.109
lhand -25.529 21.4602
lfingers 7.12502
lthumb -178.999 -128.562
rfemur 7.13163 -7.72076 11.2264
rtibia 31.1539
rfoot 5.13621 -30.8605
rtoes 16.2543
lfemur -17.1165 -12.5047 -19.3383
ltibia 17.4556
lfoot 16.3557 -41.9582
ltoes 32.7891
283
root -5.70448 18.1027 -2.9467 -173.668 17.2436 -179.171
lowerback -5.44448 10.3038 13.2993
upperback -7.00227 16.2687 8.59849
thorax -3.85323 8.71122 2.35292
lowerneck -3.75404 -20.0474 -1.38646
upperneck 17.4971 -31.0961 2.19091
head 6.60157 -15.7093 -1.40056
rclavicle -3.4191e-014 5.40694e-014
rhumerus 72.7254 45.1777 -65.566
rradius 53.2139
rwrist 4.15392
rhand -12.7705 16.4992
rfingers 7.12502
rthumb 13.3144 -13.0555
lclavicle -3.4191e-014 5.40694e-014
lhumerus 29.382 -0.88802 79.5201
lradius 72.4388
lwrist 39.9278
lhand -26.809 19.7461
lfingers 7.12502
lthumb -180.236 -130.274
rfemur 7.55216 -7.99657 11.4128
rtibia 30.5653
rfoot 5.42449 -31.3184
rtoes 18.8591
lfemur -17.4125 -12.6834 -19.4547
ltibia 17.5883
lfoot 17.0346 -42.7597
ltoes 33.1406
284
root -5.68506 18.1032 -3.00635 -173.407 16.0285 -179.095
lowerback -5.32275 10.4493 13.4219
upperback -7.52075 16.6042 8.14705
thorax -4.31727 8.83997 1.76732
lowerneck -4.42262 -20.0517 -1.50422
upperneck 17.4246 -30.7934 2.12495
head 6.67918 -15.5094 -1.45718
rclavicle 2.94201e-014 1.33583e-013
rhumerus 74.7151 44.5035 -64.7623
rradius 54.5388
rwrist 4.03718
rhand -12.9174 17.914
rfingers 7.12502
rthumb 13.1728 -11.6499
lclavicle 2.94201e-014 1.33583e-013
lhumerus 31.4006 0.262465 79.2193
lradius 74.0474
lwrist 39.5268
lhand -26.3498 20.3014
lfingers 7.12502
lthumb -179.792 -129.719
rfemur 8.06805 -8.16569 11.8839
rtibia 29.8802
rfoot 4.93141 -31.9044
rtoes 21.8681
lfemur -17.7083 -13.0285 -19.3533
ltibia 17.8093
lfoot 18.1669 -43.3237
ltoes 33.9951
285
root -5.66379 18.106 -3.06701 -173.123 14.7786 -178.914
lowerback -5.26062 10.5537 13.626
upperback -7.96772 16.8746 7.77159
thorax -4.67675 8.9444 1.24048
lowerneck -4.89486 -20.0405 -1.62547
upperneck 17.006 -30.4039 2.10928
head 6.61948 -15.2756 -1.43878
rclavicle -9.54166e-015 2.54444e-014
rhumerus 76.9895 43.8909 -63.6854
rradius 55.8237
rwrist 4.06746
rhand -13.2565 18.9417
rfingers 7.12502
rthumb 12.846 -10.643
lclavicle -9.54166e-015 2.54444e-014
lhumerus 33.5318 1.38604 78.9663
lradius 75.4015
lwrist 39.1218
lhand -26.1541 20.1482
lfingers 7.12502
lthumb -179.603 -129.872
rfemur 8.61638 -8.35529 12.4909
rtibia 29.1331
rfoot 5.12133 -32.3102
rtoes 21.5188
lfemur -18.0431 -13.4221 -19.1033
ltibia 18.0757
lfoot 19.2813 -43.9342
ltoes 34.663
286
root -5.6425 18.1086 -3.13129 -172.772 13.5899 -178.784
lowerback -5.49356 10.6605 13.7564
upperback -8.31608 17.0695 7.43214
thorax -4.79491 9.03271 0.865204
lowerneck -4.93983 -20.0695 -1.8322
upperneck 16.1682 -30.1472 2.47395
head 6.43317 -15.111 -1.24948
rclavicle -3.81667e-014 -1.49486e-013
rhumerus 79.5288 43.3157 -62.2811
rradius 57.1658
rwrist 4.38179
rhand -14.0301 19.4796
rfingers 7.12502
rthumb 12.1001 -10.1506
lclavicle -3.81667e-014 -1.49486e-013
lhumerus 35.6779 2.3344 78.5474
lradius 76.4196
lwrist 38.0385
lhand -26.9021 18.852
lfingers 7.12502
lthumb -180.326 -131.168
rfemur 9.08612 -8.68197 12.9674
rtibia 28.3511
rfoot 6.18798 -32.7077
rtoes 20.1776
lfemur -18.4735 -13.6989 -18.9068
ltibia 18.368
lfoot 20.4039 -44.6051
ltoes 35.2844
287
root -5.62423 18.11 -3.19265 -172.364 12.4739 -178.635
lowerback -5.70378 10.7559 13.8581
upperback -8.73356 17.2938 7.10621
thorax -5.01481 9.13921 0.501224
lowerneck -5.00814 -20.1334 -2.11601
upperneck 15.5827 -30.0057 2.74194
head 6.33113 -15.014 -1.11221
rclavicle -1.34378e-013 1.90833e-014
rhumerus 81.8883 42.813 -60.9781
rradius 58.486
rwrist 4.98628
rhand -15.1461 20.0205
rfingers 7.12502
rthumb 11.0239 -9.67004
lclavicle -1.34378e-013 1.90833e-014
lhumerus 37.6427 3.25911 78.0097
lradius 77.5056
lwrist 37.2184
lhand -27.4478 17.8697
lfingers 7.12502
lthumb -180.853 -132.152
rfemur 9.46095 -8.96492 13.4612
rtibia 27.5604
rfoot 7.1847 -33.1626
rtoes 20.2517
lfemur -18.9915 -13.9483 -18.6788
ltibia 18.698
lfoot 22.0972 -44.8533
ltoes 36.6104
288
root -5.60818 18.1076 -3.25224 -172.014 11.4113 -178.493
lowerback -5.85141 10.9286 13.9762
upperback -9.15639 17.6074 6.6769
thorax -5.22568 9.27603 0.0243458
lowerneck -5.16975 -20.3081 -2.02336
upperneck 14.9838 -29.9588 2.64174
head 6.13098 -14.9723 -1.10681
rclavicle 1.34378e-013 -6.20208e-014
rhumerus 84.0768 42.0689 -59.8972
rradius 59.6388
rwrist 5.66579
rhand -16.4791 20.9093
rfingers 7.12502
rthumb 9.73797 -8.84562
lclavicle 1.34378e-013 -6.20208e-014
lhumerus 39.7368 4.00197 77.5087
lradius 78.5102
lwrist 36.5537
lhand -27.3574 17.3639
lfingers 7.12502
lthumb -180.765 -132.658
rfemur 9.87862 -9.21165 13.923
rtibia 26.7791
rfoot 7.70521 -33.4921
rtoes 20.7039
lfemur -19.4486 -14.2178 -18.4667
ltibia 19.0513
lfoot 23.9016 -44.836
ltoes 38.246
289
root -5.59144 18.1035 -3.3113 -171.734 10.3578 -178.477
lowerback -6.15148 11.1956 14.0567
upperback -9.42349 17.9166 6.13683
thorax -5.13584 9.40876 -0.469264
lowerneck -5.68272 -20.493 -1.76965
upperneck 14.4196 -29.9313 2.54593
head 5.9765 -14.9161 -1.15825
rclavicle 1.17681e-013 3.02153e-014
rhumerus 86.2667 41.0286 -58.8067
rradius 60.8208
rwrist 6.34993
rhand -17.6191 21.8545
rfingers 7.12502
rthumb 8.63794 -7.94883
lclavicle 1.17681e-013 3.02153e-014
lhumerus 42.1269 4.6081 76.8807
lradius 79.2268
lwrist 35.5149
lhand -27.4159 16.5229
lfingers 7.12502
lthumb -180.822 -133.499
rfemur 10.3514 -9.45857 14.2413
rtibia 25.9955
rfoot 7.85344 -33.8011
rtoes 21.3847
lfemur -19.8401 -14.4715 -18.3996
ltibia 19.3948
lfoot 25.2009 -45.1805
ltoes 39.273
290
root -5.57288 18.1022 -3.36985 -171.446 9.32192 -178.356
lowerback -5.97131 11.3024 14.1432
upperback -10.0568 18.3043 5.69064
thorax -5.75866 9.56664 -1.06311
lowerneck -5.79058 -20.5269 -1.93973
upperneck 14.2142 -29.7756 2.40388
head 5.9237 -14.8398 -1.16119
rclavicle 8.66701e-014 2.70347e-014
rhumerus 87.5996 40.5274 -58.3546
rradius 62.0858
rwrist 7.20527
rhand -18.5635 22.6897
rfingers 7.12502
rthumb 7.72651 -7.1491
lclavicle 8.66701e-014 2.70347e-014
lhumerus 43.8495 5.29892 75.9758
lradius 80.0344
lwrist 34.929
lhand -27.4438 15.6332
lfingers 7.12502
lthumb -180.849 -134.389
rfemur 10.8312 -9.61023 14.7314
rtibia 25.1837
rfoot 8.50061 -34.0179
rtoes 21.005
lfemur -20.2292 -14.7327 -18.191
ltibia 19.7306
lfoot 26.5338 -45.472
ltoes 40.3433
